<?xml version="1.0" encoding="UTF-8"?>
<svg xmlns="http://www.w3.org/2000/svg" viewBox="0 0 539.16 138.58">
  <defs>
    <style>
      .cls-1 {
        fill: #fff;
      }

      .cls-2 {
        letter-spacing: .06em;
      }

      .cls-3 {
        fill: #41b883;
      }

      .cls-4, .cls-5 {
        font-family: Lato-Bold, Lato;
        font-size: 120px;
        font-weight: 700;
      }

      .cls-6 {
        fill: #df1818;
      }

      .cls-7 {
        fill: #35495e;
      }

      .cls-8 {
        fill: #ff1c1c;
      }

      .cls-9 {
        letter-spacing: .04em;
      }

      .cls-5 {
        letter-spacing: .06em;
      }

      .cls-10 {
        letter-spacing: .03em;
      }

      .cls-11 {
        letter-spacing: .06em;
      }

      .cls-12 {
        fill: #dfdfdf;
      }
    </style>
  </defs>
  <g id="Layer_1" data-name="Layer 1">
    <text class="cls-4" transform="translate(0 103.38)"><tspan class="cls-9" x="0" y="0">P</tspan><tspan class="cls-11" x="78.66" y="0">o</tspan><tspan class="cls-10" x="154.8" y="0">k</tspan><tspan class="cls-2" x="223.02" y="0">e</tspan></text>
  </g>
  <g id="Layer_2" data-name="Layer 2">
    <g id="Pokéball">
      <g id="Colours">
        <path id="Down" class="cls-1" d="M113.28,75.1c-6.51,0-11.94-4.61-13.23-10.73h-21.66c1.53,17.8,16.47,31.77,34.66,31.77s33.14-13.97,34.66-31.77h-21.2c-1.29,6.14-6.72,10.73-13.23,10.73Z"/>
        <path id="Shadow_Down" data-name="Shadow Down" class="cls-12" d="M121.02,95.24c14.44-3.38,25.41-15.74,26.7-30.87h-8.54c-.85,13.73-8.06,25.36-18.16,30.87Z"/>
        <path id="Center" class="cls-1" d="M121.26,61.63h0s-.02,0,0,0c-.02-.98-.19-1.92-.52-2.79-1.13-3.03-4.04-5.17-7.46-5.17s-6.33,2.16-7.46,5.17c-.32,.87-.5,1.8-.5,2.79h.02c0,.98,.18,1.92,.5,2.79,1.13,3.03,4.04,5.17,7.46,5.17s6.33-2.16,7.46-5.17c.32-.85,.5-1.8,.5-2.79h0Z"/>
        <path id="Up" class="cls-8" d="M113.3,48.08c6.51,0,11.94,4.61,13.23,10.65h21.66c-1.53-17.74-16.47-31.71-34.67-31.71s-33.13,13.97-34.66,31.71h21.22c1.29-6.06,6.72-10.65,13.23-10.65Z"/>
        <path id="Shadow_Up" data-name="Shadow Up" class="cls-6" d="M139.18,58.73h8.99c-1.32-15.39-12.66-27.92-27.47-31.03,10.28,5.43,17.61,17.18,18.48,31.03Z"/>
      </g>
      <path id="Line" d="M113.51,26.95c18.21,0,33.14,13.97,34.66,31.77h-21.66c-1.29-6.12-6.72-10.73-13.23-10.73s-11.94,4.61-13.23,10.73h-21.2c1.53-17.8,16.47-31.77,34.66-31.77Zm7.23,31.89c.32,.87,.5,1.8,.5,2.79h.02c0,.98-.18,1.92-.5,2.79-1.13,3.03-4.04,5.17-7.46,5.17s-6.33-2.16-7.46-5.17c-.32-.87-.5-1.8-.5-2.79h-.02c0-.98,.18-1.92,.5-2.79,1.13-3.03,4.04-5.17,7.46-5.17s6.33,2.16,7.46,5.17Zm-7.69,37.3c-18.21,0-33.14-13.97-34.66-31.77h21.66c1.29,6.12,6.72,10.73,13.23,10.73s11.94-4.61,13.23-10.73h21.22c-1.53,17.79-16.47,31.77-34.67,31.77Zm.23-75.76c-22.75,0-41.2,18.45-41.2,41.2s18.45,41.2,41.2,41.2,41.22-18.43,41.22-41.2-18.45-41.2-41.22-41.2Z"/>
    </g>
  </g>
  <g id="Layer_3" data-name="Layer 3">
    <g>
      <path class="cls-3" d="M371.61,23.38h21.15l-52.88,91.22-52.88-91.22h40.45l12.43,21.15,12.16-21.15h19.57Z"/>
      <path class="cls-3" d="M287,23.38l52.88,91.22,52.88-91.22h-21.15l-31.73,54.73-31.99-54.73h-20.89Z"/>
      <path class="cls-7" d="M307.89,23.38l31.99,55,31.73-55h-19.57l-12.16,21.15-12.43-21.15h-19.57Z"/>
    </g>
    <text class="cls-5" transform="translate(393 104.38)"><tspan x="0" y="0">ue</tspan></text>
  </g>
</svg>